<?xml version="1.0" encoding="UTF-8"?>
<!DOCTYPE svg PUBLIC "-//W3C//DTD SVG 1.1//EN" "http://www.w3.org/Graphics/SVG/1.1/DTD/svg11.dtd">
<svg xmlns="http://www.w3.org/2000/svg" version="1.1" width="256px" height="256px" style="shape-rendering:geometricPrecision; text-rendering:geometricPrecision; image-rendering:optimizeQuality; fill-rule:evenodd; clip-rule:evenodd" xmlns:xlink="http://www.w3.org/1999/xlink">
<g><path style="opacity:1" fill="#fcfcfc" d="M 134.5,49.5 C 136.147,51.3264 138.147,52.6597 140.5,53.5C 142,57.173 144,60.5063 146.5,63.5C 146.167,64.1667 145.833,64.8333 145.5,65.5C 159.538,67.1869 173.872,68.1869 188.5,68.5C 189.222,68.9175 189.722,69.5842 190,70.5C 190.5,109.832 190.667,149.165 190.5,188.5C 189.596,189.209 189.263,190.209 189.5,191.5C 148.499,191.667 107.499,191.5 66.5,191C 65.5034,150.906 65.1701,110.739 65.5,70.5C 65.5569,69.391 65.8902,68.391 66.5,67.5C 81.2057,68.1495 95.539,67.4828 109.5,65.5C 109.167,64.8333 108.833,64.1667 108.5,63.5C 110.474,61.572 111.974,59.2387 113,56.5C 115.396,53.9334 117.896,51.6 120.5,49.5C 125.167,46.8333 129.833,46.8333 134.5,49.5 Z M 134.5,62.5 C 136.477,68.5991 134.477,72.5991 128.5,74.5C 127.833,74.5 127.167,74.5 126.5,74.5C 125.292,73.7659 123.959,73.4326 122.5,73.5C 119.202,69.6772 118.868,65.6772 121.5,61.5C 124.665,58.197 128.332,57.697 132.5,60C 133.381,60.7083 134.047,61.5416 134.5,62.5 Z M 75.5,76.5 C 80.5,76.5 85.5,76.5 90.5,76.5C 90.1818,81.0323 90.5151,85.3656 91.5,89.5C 91.2291,91.3797 91.8958,92.713 93.5,93.5C 115.996,94.663 138.663,94.8296 161.5,94C 162.056,93.6174 162.389,93.1174 162.5,92.5C 163.338,92.1583 163.672,91.4916 163.5,90.5C 164.486,86.03 164.819,81.3633 164.5,76.5C 169.5,76.5 174.5,76.5 179.5,76.5C 180.16,111.849 179.493,146.849 177.5,181.5C 143.5,181.5 109.5,181.5 75.5,181.5C 75.5,146.5 75.5,111.5 75.5,76.5 Z"/></g>
<g><path style="opacity:0.329" fill="#75726e" d="M 134.5,49.5 C 137.198,49.8449 139.198,51.1782 140.5,53.5C 138.147,52.6597 136.147,51.3264 134.5,49.5 Z"/></g>
<g><path style="opacity:0.886" fill="#7f7e78" d="M 120.5,49.5 C 117.896,51.6 115.396,53.9334 113,56.5C 111.974,59.2387 110.474,61.572 108.5,63.5C 109.99,56.6771 113.99,52.0105 120.5,49.5 Z"/></g>
<g><path style="opacity:0.882" fill="#74736e" d="M 140.5,53.5 C 144.023,55.8733 146.023,59.2066 146.5,63.5C 144,60.5063 142,57.173 140.5,53.5 Z"/></g>
<g><path style="opacity:1" fill="#aaa8a5" d="M 109.5,65.5 C 95.539,67.4828 81.2057,68.1495 66.5,67.5C 66.5,67.1667 66.5,66.8333 66.5,66.5C 80.7548,65.5178 95.0882,65.1844 109.5,65.5 Z"/></g>
<g><path style="opacity:0.467" fill="#888583" d="M 121.5,61.5 C 118.868,65.6772 119.202,69.6772 122.5,73.5C 119.564,72.4847 118.231,70.318 118.5,67C 118.116,64.2585 119.116,62.4251 121.5,61.5 Z"/></g>
<g><path style="opacity:1" fill="#aaa8a5" d="M 145.5,65.5 C 159.912,65.1844 174.245,65.5178 188.5,66.5C 188.5,67.1667 188.5,67.8333 188.5,68.5C 173.872,68.1869 159.538,67.1869 145.5,65.5 Z"/></g>
<g><path style="opacity:1" fill="#898884" d="M 134.5,62.5 C 137.259,66.4177 136.925,70.251 133.5,74C 132.128,74.4017 130.795,74.9017 129.5,75.5C 128.893,75.3764 128.56,75.0431 128.5,74.5C 134.477,72.5991 136.477,68.5991 134.5,62.5 Z"/></g>
<g><path style="opacity:0.329" fill="#60615f" d="M 122.5,73.5 C 123.959,73.4326 125.292,73.7659 126.5,74.5C 125.038,75.4709 123.705,75.1376 122.5,73.5 Z"/></g>
<g><path style="opacity:0.984" fill="#7b7c7a" d="M 181.5,182.5 C 181.167,182.5 180.833,182.5 180.5,182.5C 180.832,146.996 180.498,111.663 179.5,76.5C 174.5,76.5 169.5,76.5 164.5,76.5C 164.819,81.3633 164.486,86.03 163.5,90.5C 163.5,85.5 163.5,80.5 163.5,75.5C 169.5,75.5 175.5,75.5 181.5,75.5C 181.5,111.167 181.5,146.833 181.5,182.5 Z"/></g>
<g><path style="opacity:0.718" fill="#73716f" d="M 162.5,92.5 C 162.389,93.1174 162.056,93.6174 161.5,94C 138.663,94.8296 115.996,94.663 93.5,93.5C 116.545,93.8127 139.545,93.4794 162.5,92.5 Z"/></g>
<g><path style="opacity:0.984" fill="#8f8f8e" d="M 91.5,89.5 C 90.5151,85.3656 90.1818,81.0323 90.5,76.5C 85.5,76.5 80.5,76.5 75.5,76.5C 74.5016,111.663 74.1683,146.996 74.5,182.5C 108.833,182.5 143.167,182.5 177.5,182.5C 178.5,182.5 179.5,182.5 180.5,182.5C 180.833,182.5 181.167,182.5 181.5,182.5C 145.671,183.498 109.671,183.832 73.5,183.5C 73.5,147.5 73.5,111.5 73.5,75.5C 79.5,75.5 85.5,75.5 91.5,75.5C 91.5,80.1667 91.5,84.8333 91.5,89.5 Z"/></g>
<g><path style="opacity:0.663" fill="#3f3e3c" d="M 157.5,108.5 C 160.5,110.833 163.167,113.5 165.5,116.5C 161.833,114.833 159.167,112.167 157.5,108.5 Z"/></g>
<g><path style="opacity:1" fill="#f3f3f2" d="M 156.5,108.5 C 156.833,108.5 157.167,108.5 157.5,108.5C 159.167,112.167 161.833,114.833 165.5,116.5C 165.385,118.947 164.385,120.947 162.5,122.5C 159.833,123.167 158.167,124.833 157.5,127.5C 155.5,127.5 154.5,128.5 154.5,130.5C 154.167,131.5 153.5,132.167 152.5,132.5C 150.738,133.262 149.738,134.596 149.5,136.5C 147.833,138.833 145.833,140.833 143.5,142.5C 142.167,143.167 141.167,144.167 140.5,145.5C 138.183,149.482 135.183,152.815 131.5,155.5C 130.5,155.833 129.833,156.5 129.5,157.5C 128.5,158.833 127.5,160.167 126.5,161.5C 125.5,161.833 124.833,162.5 124.5,163.5C 123.04,165.463 121.373,167.296 119.5,169C 118.563,169.692 117.897,169.525 117.5,168.5C 117.5,166.5 116.5,165.5 114.5,165.5C 112.138,162.808 109.804,160.141 107.5,157.5C 107.446,155.368 106.446,154.035 104.5,153.5C 102.833,152.5 101.5,151.167 100.5,149.5C 100.262,147.596 99.2624,146.262 97.5,145.5C 96.1667,144.833 95.1667,143.833 94.5,142.5C 94.5,140.5 93.5,139.5 91.5,139.5C 90.0582,138.18 89.3915,136.514 89.5,134.5C 93.1667,132.833 95.8333,130.167 97.5,126.5C 99.0618,126.733 100.395,127.4 101.5,128.5C 101.5,129.833 102.167,130.5 103.5,130.5C 104.872,131.512 106.205,132.512 107.5,133.5C 107.5,135.5 108.5,136.5 110.5,136.5C 112.772,137.441 114.772,138.774 116.5,140.5C 119.287,143.296 121.287,142.629 122.5,138.5C 123.5,137.833 124.5,137.167 125.5,136.5C 127.749,135.92 129.415,134.587 130.5,132.5C 130.833,131.5 131.5,130.833 132.5,130.5C 134.749,129.92 136.415,128.587 137.5,126.5C 138.167,125.167 139.167,124.167 140.5,123.5C 142.341,122.598 143.674,121.264 144.5,119.5C 149.762,117.204 153.762,113.537 156.5,108.5 Z"/></g>
<g><path style="opacity:0.631" fill="#76736e" d="M 156.5,108.5 C 153.762,113.537 149.762,117.204 144.5,119.5C 148.459,115.843 152.459,112.176 156.5,108.5 Z"/></g>
<g><path style="opacity:0.533" fill="#52514f" d="M 144.5,119.5 C 143.674,121.264 142.341,122.598 140.5,123.5C 140.894,121.29 142.227,119.957 144.5,119.5 Z"/></g>
<g><path style="opacity:0.129" fill="#090904" d="M 179.5,76.5 C 180.498,111.663 180.832,146.996 180.5,182.5C 179.5,182.5 178.5,182.5 177.5,182.5C 177.5,182.167 177.5,181.833 177.5,181.5C 179.493,146.849 180.16,111.849 179.5,76.5 Z"/></g>
<g><path style="opacity:0.137" fill="#333532" d="M 162.5,122.5 C 161.167,124.5 159.5,126.167 157.5,127.5C 158.167,124.833 159.833,123.167 162.5,122.5 Z"/></g>
<g><path style="opacity:0.69" fill="#3a3a39" d="M 101.5,128.5 C 102.5,128.833 103.167,129.5 103.5,130.5C 102.167,130.5 101.5,129.833 101.5,128.5 Z"/></g>
<g><path style="opacity:1" fill="#969491" d="M 137.5,126.5 C 136.415,128.587 134.749,129.92 132.5,130.5C 133.585,128.413 135.251,127.08 137.5,126.5 Z"/></g>
<g><path style="opacity:0.133" fill="#847d76" d="M 157.5,127.5 C 156.833,128.833 155.833,129.833 154.5,130.5C 154.5,128.5 155.5,127.5 157.5,127.5 Z"/></g>
<g><path style="opacity:0.729" fill="#545350" d="M 97.5,126.5 C 95.8333,130.167 93.1667,132.833 89.5,134.5C 91.8333,131.5 94.5,128.833 97.5,126.5 Z"/></g>
<g><path style="opacity:0.58" fill="#787671" d="M 107.5,133.5 C 108.833,134.167 109.833,135.167 110.5,136.5C 108.5,136.5 107.5,135.5 107.5,133.5 Z"/></g>
<g><path style="opacity:0.043" fill="#222222" d="M 152.5,132.5 C 152.262,134.404 151.262,135.738 149.5,136.5C 149.738,134.596 150.738,133.262 152.5,132.5 Z"/></g>
<g><path style="opacity:0.169" fill="#746f66" d="M 66.5,66.5 C 66.5,66.8333 66.5,67.1667 66.5,67.5C 65.8902,68.391 65.5569,69.391 65.5,70.5C 64.5014,109.996 64.1681,149.663 64.5,189.5C 63.3354,149.335 63.1687,109.002 64,68.5C 64.7083,67.6195 65.5416,66.9528 66.5,66.5 Z"/></g>
<g><path style="opacity:0.961" fill="#807e7b" d="M 130.5,132.5 C 129.415,134.587 127.749,135.92 125.5,136.5C 126.585,134.413 128.251,133.08 130.5,132.5 Z"/></g>
<g><path style="opacity:0.773" fill="#333332" d="M 91.5,139.5 C 93.5,139.5 94.5,140.5 94.5,142.5C 93.1667,141.833 92.1667,140.833 91.5,139.5 Z"/></g>
<g><path style="opacity:0.188" fill="#4d4c49" d="M 122.5,138.5 C 121.287,142.629 119.287,143.296 116.5,140.5C 117.15,140.804 117.817,141.137 118.5,141.5C 119.852,140.476 121.185,139.476 122.5,138.5 Z"/></g>
<g><path style="opacity:0.169" fill="#a0988f" d="M 188.5,66.5 C 189.458,66.9528 190.292,67.6195 191,68.5C 191.5,108.499 191.667,148.499 191.5,188.5C 191.167,188.5 190.833,188.5 190.5,188.5C 190.667,149.165 190.5,109.832 190,70.5C 189.722,69.5842 189.222,68.9175 188.5,68.5C 188.5,67.8333 188.5,67.1667 188.5,66.5 Z"/></g>
<g><path style="opacity:0.027" fill="#242424" d="M 143.5,142.5 C 143.5,144.5 142.5,145.5 140.5,145.5C 141.167,144.167 142.167,143.167 143.5,142.5 Z"/></g>
<g><path style="opacity:0.016" fill="#292928" d="M 97.5,145.5 C 99.2624,146.262 100.262,147.596 100.5,149.5C 98.7376,148.738 97.7376,147.404 97.5,145.5 Z"/></g>
<g><path style="opacity:0.549" fill="#646360" d="M 104.5,153.5 C 106.446,154.035 107.446,155.368 107.5,157.5C 106.026,156.564 105.026,155.23 104.5,153.5 Z"/></g>
<g><path style="opacity:0.004" fill="#383736" d="M 131.5,155.5 C 131.5,156.833 130.833,157.5 129.5,157.5C 129.833,156.5 130.5,155.833 131.5,155.5 Z"/></g>
<g><path style="opacity:0.02" fill="#111313" d="M 126.5,161.5 C 126.5,162.833 125.833,163.5 124.5,163.5C 124.833,162.5 125.5,161.833 126.5,161.5 Z"/></g>
<g><path style="opacity:0.98" fill="#71706c" d="M 114.5,165.5 C 116.5,165.5 117.5,166.5 117.5,168.5C 116.167,167.833 115.167,166.833 114.5,165.5 Z"/></g>
<g><path style="opacity:0.388" fill="#1d1f1d" d="M 75.5,76.5 C 75.5,111.5 75.5,146.5 75.5,181.5C 109.5,181.5 143.5,181.5 177.5,181.5C 177.5,181.833 177.5,182.167 177.5,182.5C 143.167,182.5 108.833,182.5 74.5,182.5C 74.1683,146.996 74.5016,111.663 75.5,76.5 Z"/></g>
<g><path style="opacity:0.051" fill="#282627" d="M 190.5,188.5 C 190.833,188.5 191.167,188.5 191.5,188.5C 191.573,190.027 190.906,191.027 189.5,191.5C 189.263,190.209 189.596,189.209 190.5,188.5 Z"/></g>
<g><path style="opacity:0.831" fill="#ada9a4" d="M 65.5,70.5 C 65.1701,110.739 65.5034,150.906 66.5,191C 107.499,191.5 148.499,191.667 189.5,191.5C 148.335,192.665 107.002,192.831 65.5,192C 64.7476,191.329 64.4142,190.496 64.5,189.5C 64.1681,149.663 64.5014,109.996 65.5,70.5 Z"/></g>
</svg>
