<?xml version="1.0" encoding="UTF-8"?>
<!DOCTYPE svg PUBLIC "-//W3C//DTD SVG 1.1//EN" "http://www.w3.org/Graphics/SVG/1.1/DTD/svg11.dtd">
<svg xmlns="http://www.w3.org/2000/svg" version="1.1" width="256px" height="256px" style="shape-rendering:geometricPrecision; text-rendering:geometricPrecision; image-rendering:optimizeQuality; fill-rule:evenodd; clip-rule:evenodd" xmlns:xlink="http://www.w3.org/1999/xlink">
<g><path style="opacity:0.991" fill="#fefffe" d="M 7.5,-0.5 C 87.5,-0.5 167.5,-0.5 247.5,-0.5C 250.5,1.83333 253.167,4.5 255.5,7.5C 255.5,87.5 255.5,167.5 255.5,247.5C 253.167,250.5 250.5,253.167 247.5,255.5C 223.5,255.5 199.5,255.5 175.5,255.5C 175.333,222.498 175.5,189.498 176,156.5C 187,155.833 198,155.167 209,154.5C 210.665,142.512 212.165,130.512 213.5,118.5C 201.162,118.667 188.829,118.5 176.5,118C 175.348,107.91 175.181,97.7438 176,87.5C 177.194,79.6391 181.694,75.1391 189.5,74C 198.16,73.5002 206.827,73.3336 215.5,73.5C 215.667,62.8281 215.5,52.1615 215,41.5C 214.25,40.8742 213.416,40.3742 212.5,40C 198.082,37.7712 183.749,38.1045 169.5,41C 148.62,47.9036 137.787,62.4036 137,84.5C 136.5,95.8284 136.333,107.162 136.5,118.5C 125.5,118.5 114.5,118.5 103.5,118.5C 103.5,130.833 103.5,143.167 103.5,155.5C 114.5,155.5 125.5,155.5 136.5,155.5C 136.5,188.833 136.5,222.167 136.5,255.5C 93.5,255.5 50.5,255.5 7.5,255.5C 4.5,253.167 1.83333,250.5 -0.5,247.5C -0.5,167.5 -0.5,87.5 -0.5,7.5C 1.83333,4.5 4.5,1.83333 7.5,-0.5 Z"/></g>
</svg>
