<?xml version="1.0" encoding="UTF-8"?>
<!DOCTYPE svg PUBLIC "-//W3C//DTD SVG 1.1//EN" "http://www.w3.org/Graphics/SVG/1.1/DTD/svg11.dtd">
<svg xmlns="http://www.w3.org/2000/svg" version="1.1" width="256px" height="256px" style="shape-rendering:geometricPrecision; text-rendering:geometricPrecision; image-rendering:optimizeQuality; fill-rule:evenodd; clip-rule:evenodd" xmlns:xlink="http://www.w3.org/1999/xlink">
<g><path style="opacity:0.985" fill="#fefffe" d="M 18.5,-0.5 C 91.1667,-0.5 163.833,-0.5 236.5,-0.5C 244.886,4.21935 251.219,10.886 255.5,19.5C 255.5,91.5 255.5,163.5 255.5,235.5C 251.192,244.475 244.525,251.141 235.5,255.5C 163.5,255.5 91.5,255.5 19.5,255.5C 10.4747,251.141 3.808,244.475 -0.5,235.5C -0.5,163.5 -0.5,91.5 -0.5,19.5C 3.75477,10.9106 10.0881,4.24391 18.5,-0.5 Z M 184.5,29.5 C 195.172,29.3335 205.839,29.5002 216.5,30C 219.196,30.6898 221.363,32.1898 223,34.5C 224.625,46.4035 224.958,58.4035 224,70.5C 222.833,73 221,74.8333 218.5,76C 206.5,76.6667 194.5,76.6667 182.5,76C 180,74.8333 178.167,73 177,70.5C 176.333,58.8333 176.333,47.1667 177,35.5C 179.134,32.8474 181.634,30.8474 184.5,29.5 Z M 127.5,78.5 C 157.151,81.3186 173.818,97.4853 177.5,127C 173.887,156.28 157.387,172.446 128,175.5C 106.088,173.909 90.4217,163.243 81,143.5C 73.8819,116.244 82.7152,96.0775 107.5,83C 114.095,80.5245 120.762,79.0245 127.5,78.5 Z M 29.5,109.5 C 36.175,109.334 42.8417,109.5 49.5,110C 41.2949,149.589 54.6282,179.589 89.5,200C 116.484,211.851 143.151,211.184 169.5,198C 202,177.014 214.334,147.514 206.5,109.5C 212.5,109.5 218.5,109.5 224.5,109.5C 224.667,146.168 224.5,182.835 224,219.5C 222.773,221.726 220.939,223.226 218.5,224C 157.833,224.667 97.1667,224.667 36.5,224C 33.0267,223.193 30.86,221.027 30,217.5C 29.5,181.502 29.3333,145.502 29.5,109.5 Z"/></g>
</svg>
