<svg xmlns="http://www.w3.org/2000/svg" width="393" height="636" viewBox="0 0 393 636" version="1.1"><path d="M 179.750 0.723 C 181.537 0.945, 184.463 0.945, 186.250 0.723 C 188.037 0.502, 186.575 0.320, 183 0.320 C 179.425 0.320, 177.963 0.502, 179.750 0.723 M 205.768 0.725 C 207.565 0.947, 210.265 0.943, 211.768 0.715 C 213.271 0.486, 211.800 0.304, 208.500 0.310 C 205.200 0.315, 203.971 0.502, 205.768 0.725 M 170.250 1.689 C 171.213 1.941, 172.787 1.941, 173.750 1.689 C 174.713 1.438, 173.925 1.232, 172 1.232 C 170.075 1.232, 169.287 1.438, 170.250 1.689 M 217.762 1.707 C 219.006 1.946, 220.806 1.937, 221.762 1.687 C 222.718 1.437, 221.700 1.241, 219.500 1.252 C 217.300 1.263, 216.518 1.468, 217.762 1.707 M 162.750 2.662 C 163.438 2.940, 164.563 2.940, 165.250 2.662 C 165.938 2.385, 165.375 2.158, 164 2.158 C 162.625 2.158, 162.063 2.385, 162.750 2.662 M 226.269 2.693 C 227.242 2.947, 228.592 2.930, 229.269 2.656 C 229.946 2.382, 229.150 2.175, 227.500 2.195 C 225.850 2.215, 225.296 2.439, 226.269 2.693 M 156.750 3.662 C 157.438 3.940, 158.563 3.940, 159.250 3.662 C 159.938 3.385, 159.375 3.158, 158 3.158 C 156.625 3.158, 156.063 3.385, 156.750 3.662 M 231.750 3.662 C 232.438 3.940, 233.563 3.940, 234.250 3.662 C 234.938 3.385, 234.375 3.158, 233 3.158 C 231.625 3.158, 231.063 3.385, 231.750 3.662 M 236.750 4.662 C 237.438 4.940, 238.563 4.940, 239.250 4.662 C 239.938 4.385, 239.375 4.158, 238 4.158 C 236.625 4.158, 236.063 4.385, 236.750 4.662 M 141.500 7 C 138.952 8.095, 141.581 8.095, 145 7 C 147.010 6.356, 147.108 6.194, 145.500 6.170 C 144.400 6.154, 142.600 6.527, 141.500 7 M 129 11 C 128.175 11.533, 127.950 11.969, 128.500 11.969 C 129.050 11.969, 130.175 11.533, 131 11 C 131.825 10.467, 132.050 10.031, 131.500 10.031 C 130.950 10.031, 129.825 10.467, 129 11 M 260.500 11 C 263.249 12.181, 264.828 12.181, 263 11 C 262.175 10.467, 260.825 10.055, 260 10.086 C 259.011 10.122, 259.181 10.433, 260.500 11 M 121 14 C 120.175 14.533, 119.950 14.969, 120.500 14.969 C 121.050 14.969, 122.175 14.533, 123 14 C 123.825 13.467, 124.050 13.031, 123.500 13.031 C 122.950 13.031, 121.825 13.467, 121 14 M 111 18.500 C 107.425 20.372, 104.950 21.903, 105.500 21.903 C 106.050 21.903, 109.425 20.372, 113 18.500 C 116.575 16.628, 119.050 15.097, 118.500 15.097 C 117.950 15.097, 114.575 16.628, 111 18.500 M 275 16.500 C 276.375 17.286, 277.950 17.929, 278.500 17.929 C 279.050 17.929, 278.375 17.286, 277 16.500 C 275.625 15.714, 274.050 15.071, 273.500 15.071 C 272.950 15.071, 273.625 15.714, 275 16.500 M 292.294 24.977 C 298.205 28.264, 305.732 32.781, 309.021 35.014 C 312.309 37.247, 315 38.850, 315 38.575 C 315 37.133, 284.922 19, 282.530 19 C 281.989 19, 286.383 21.690, 292.294 24.977 M 100.750 23.572 C 97.012 25.600, 97.239 26.445, 101 24.500 C 102.650 23.647, 104 22.735, 104 22.474 C 104 21.831, 103.893 21.867, 100.750 23.572 M 91.250 29.115 C 87.841 31.298, 86.738 32.764, 89.750 31.108 C 92.044 29.847, 95.639 27.068, 95 27.049 C 94.725 27.040, 93.037 27.970, 91.250 29.115 M 80.500 36.588 L 77.500 39.165 80.750 37.015 C 82.537 35.832, 84 34.669, 84 34.432 C 84 33.683, 83.577 33.944, 80.500 36.588 M 73.306 41.573 L 70.500 44.146 73.750 41.885 C 75.537 40.641, 77 39.484, 77 39.312 C 77 38.523, 75.894 39.200, 73.306 41.573 M 318.989 41.669 C 329.336 50.066, 338.554 58.923, 345.073 66.733 C 353.682 77.047, 354.589 78.047, 353.482 76 C 349.743 69.089, 323.791 43.011, 317.500 39.845 C 316.400 39.291, 317.070 40.112, 318.989 41.669 M 57.761 55.250 C 51.539 61.438, 44.939 68.525, 43.096 71 C 40.742 74.159, 41.314 73.712, 45.015 69.500 C 47.915 66.200, 54.816 59.112, 60.352 53.750 C 65.887 48.388, 70.114 44, 69.746 44 C 69.377 44, 63.984 49.063, 57.761 55.250 M 34.290 83.250 C 28.924 91.094, 27.078 94.140, 28.687 92.500 C 29.573 91.597, 37.460 80.314, 39.348 77.250 C 39.772 76.563, 39.923 76, 39.684 76 C 39.445 76, 37.018 79.263, 34.290 83.250 M 364.539 93.750 C 366.571 97.188, 368.449 100, 368.712 100 C 369.398 100, 364.024 90.788, 362.295 89 C 361.497 88.175, 362.507 90.313, 364.539 93.750 M 26 96 C 25.411 97.100, 25.155 98, 25.430 98 C 25.705 98, 26.411 97.100, 27 96 C 27.589 94.900, 27.845 94, 27.570 94 C 27.295 94, 26.589 94.900, 26 96 M 22 103 C 20.878 105.200, 20.184 107, 20.459 107 C 20.734 107, 21.878 105.200, 23 103 C 24.122 100.800, 24.816 99, 24.541 99 C 24.266 99, 23.122 100.800, 22 103 M 372.710 108.465 C 374.742 112.570, 376.567 115.767, 376.766 115.567 C 377.212 115.122, 370.164 101, 369.496 101 C 369.232 101, 370.679 104.359, 372.710 108.465 M 17.189 112.549 C 14.176 118.749, 14.512 119.617, 17.615 113.652 C 19.003 110.986, 19.967 108.633, 19.757 108.424 C 19.548 108.215, 18.392 110.071, 17.189 112.549 M 192.728 120.722 C 194.503 120.943, 197.653 120.946, 199.728 120.730 C 201.802 120.513, 200.350 120.333, 196.500 120.328 C 192.650 120.324, 190.952 120.501, 192.728 120.722 M 12.624 122.539 C 11.659 125.053, 11.943 125.702, 13.122 123.675 C 13.706 122.671, 13.973 121.639, 13.715 121.382 C 13.458 121.124, 12.966 121.645, 12.624 122.539 M 184.750 121.662 C 185.438 121.940, 186.563 121.940, 187.250 121.662 C 187.938 121.385, 187.375 121.158, 186 121.158 C 184.625 121.158, 184.063 121.385, 184.750 121.662 M 206.269 121.693 C 207.242 121.947, 208.592 121.930, 209.269 121.656 C 209.946 121.382, 209.150 121.175, 207.500 121.195 C 205.850 121.215, 205.296 121.439, 206.269 121.693 M 379.031 121.500 C 379.031 122.050, 379.467 123.175, 380 124 C 380.533 124.825, 380.969 125.050, 380.969 124.500 C 380.969 123.950, 380.533 122.825, 380 122 C 379.467 121.175, 379.031 120.950, 379.031 121.500 M 216.500 124 C 219.249 125.181, 220.828 125.181, 219 124 C 218.175 123.467, 216.825 123.055, 216 123.086 C 215.011 123.122, 215.181 123.433, 216.500 124 M 169 126 C 168.175 126.533, 167.950 126.969, 168.500 126.969 C 169.050 126.969, 170.175 126.533, 171 126 C 171.825 125.467, 172.050 125.031, 171.500 125.031 C 170.950 125.031, 169.825 125.467, 169 126 M 222 126 C 222.825 126.533, 223.950 126.969, 224.500 126.969 C 225.050 126.969, 224.825 126.533, 224 126 C 223.175 125.467, 222.050 125.031, 221.500 125.031 C 220.950 125.031, 221.175 125.467, 222 126 M 158.732 131.536 C 156.679 132.931, 155 134.287, 155 134.550 C 155 134.813, 156.800 133.837, 159 132.381 C 162.493 130.070, 163.674 129, 162.732 129 C 162.585 129, 160.785 130.141, 158.732 131.536 M 233 131.350 C 233 131.581, 234.180 132.543, 235.623 133.489 C 237.066 134.434, 237.941 134.713, 237.567 134.109 C 236.854 132.955, 233 130.626, 233 131.350 M 147.469 141.250 L 141.500 147.500 147.750 141.531 C 151.188 138.249, 154 135.436, 154 135.281 C 154 134.542, 153.013 135.444, 147.469 141.250 M 244.500 141 C 247.766 144.300, 250.662 147, 250.937 147 C 251.212 147, 248.766 144.300, 245.500 141 C 242.234 137.700, 239.338 135, 239.063 135 C 238.788 135, 241.234 137.700, 244.500 141 M 6.571 140.571 C 6.204 142.037, 6.096 143.429, 6.331 143.665 C 6.567 143.900, 7.061 142.894, 7.429 141.429 C 7.796 139.963, 7.904 138.571, 7.669 138.335 C 7.433 138.100, 6.939 139.106, 6.571 140.571 M 255 154 C 255.589 155.100, 256.295 156, 256.570 156 C 256.845 156, 256.589 155.100, 256 154 C 255.411 152.900, 254.705 152, 254.430 152 C 254.155 152, 254.411 152.900, 255 154 M 3.195 156.500 C 3.215 158.150, 3.439 158.704, 3.693 157.731 C 3.947 156.758, 3.930 155.408, 3.656 154.731 C 3.382 154.054, 3.175 154.850, 3.195 156.500 M 389.158 156 C 389.158 157.375, 389.385 157.938, 389.662 157.250 C 389.940 156.563, 389.940 155.438, 389.662 154.750 C 389.385 154.063, 389.158 154.625, 389.158 156 M 2.195 162.500 C 2.215 164.150, 2.439 164.704, 2.693 163.731 C 2.947 162.758, 2.930 161.408, 2.656 160.731 C 2.382 160.054, 2.175 160.850, 2.195 162.500 M 390.195 162.500 C 390.215 164.150, 390.439 164.704, 390.693 163.731 C 390.947 162.758, 390.930 161.408, 390.656 160.731 C 390.382 160.054, 390.175 160.850, 390.195 162.500 M 1.252 169.500 C 1.263 171.700, 1.468 172.482, 1.707 171.238 C 1.946 169.994, 1.937 168.194, 1.687 167.238 C 1.437 166.282, 1.241 167.300, 1.252 169.500 M 130.624 167.539 C 130.281 168.432, 130.029 169.689, 130.063 170.332 C 130.098 170.974, 130.558 170.422, 131.085 169.105 C 131.612 167.787, 131.864 166.531, 131.645 166.312 C 131.426 166.093, 130.966 166.645, 130.624 167.539 M 391.232 169 C 391.232 170.925, 391.438 171.713, 391.689 170.750 C 391.941 169.787, 391.941 168.213, 391.689 167.250 C 391.438 166.287, 391.232 167.075, 391.232 169 M 0.320 181 C 0.320 184.575, 0.502 186.037, 0.723 184.250 C 0.945 182.463, 0.945 179.537, 0.723 177.750 C 0.502 175.963, 0.320 177.425, 0.320 181 M 392.320 181 C 392.320 184.575, 392.502 186.037, 392.723 184.250 C 392.945 182.463, 392.945 179.537, 392.723 177.750 C 392.502 175.963, 392.320 177.425, 392.320 181 M 128.158 178 C 128.158 179.375, 128.385 179.938, 128.662 179.250 C 128.940 178.563, 128.940 177.438, 128.662 176.750 C 128.385 176.063, 128.158 176.625, 128.158 178 M 264.158 178 C 264.158 179.375, 264.385 179.938, 264.662 179.250 C 264.940 178.563, 264.940 177.438, 264.662 176.750 C 264.385 176.063, 264.158 176.625, 264.158 178 M 127.336 190 C 127.336 194.125, 127.513 195.813, 127.728 193.750 C 127.944 191.688, 127.944 188.313, 127.728 186.250 C 127.513 184.188, 127.336 185.875, 127.336 190 M 265.336 190 C 265.336 194.125, 265.513 195.813, 265.728 193.750 C 265.944 191.688, 265.944 188.313, 265.728 186.250 C 265.513 184.188, 265.336 185.875, 265.336 190 M 128.158 201 C 128.158 202.375, 128.385 202.938, 128.662 202.250 C 128.940 201.563, 128.940 200.438, 128.662 199.750 C 128.385 199.063, 128.158 199.625, 128.158 201 M 264.158 201 C 264.158 202.375, 264.385 202.938, 264.662 202.250 C 264.940 201.563, 264.940 200.438, 264.662 199.750 C 264.385 199.063, 264.158 199.625, 264.158 201 M 392 205 C 392 207.750, 392.450 210, 393 210 C 393.550 210, 394 207.750, 394 205 C 394 202.250, 393.550 200, 393 200 C 392.450 200, 392 202.250, 392 205 M 261.200 211.700 C 259.720 216.522, 260.436 217.238, 262 212.500 C 262.660 210.501, 263.005 208.672, 262.767 208.434 C 262.530 208.196, 261.824 209.666, 261.200 211.700 M 131.031 212.500 C 131.031 213.050, 131.467 214.175, 132 215 C 132.533 215.825, 132.969 216.050, 132.969 215.500 C 132.969 214.950, 132.533 213.825, 132 213 C 131.467 212.175, 131.031 211.950, 131.031 212.500 M 391.232 216 C 391.232 217.925, 391.438 218.713, 391.689 217.750 C 391.941 216.787, 391.941 215.213, 391.689 214.250 C 391.438 213.287, 391.232 214.075, 391.232 216 M 1.195 216.500 C 1.215 218.150, 1.439 218.704, 1.693 217.731 C 1.947 216.758, 1.930 215.408, 1.656 214.731 C 1.382 214.054, 1.175 214.850, 1.195 216.500 M 390.195 222.500 C 390.215 224.150, 390.439 224.704, 390.693 223.731 C 390.947 222.758, 390.930 221.408, 390.656 220.731 C 390.382 220.054, 390.175 220.850, 390.195 222.500 M 2.158 223 C 2.158 224.375, 2.385 224.938, 2.662 224.250 C 2.940 223.563, 2.940 222.438, 2.662 221.750 C 2.385 221.063, 2.158 221.625, 2.158 223 M 137 225 C 137.589 226.100, 138.295 227, 138.570 227 C 138.845 227, 138.589 226.100, 138 225 C 137.411 223.900, 136.705 223, 136.430 223 C 136.155 223, 136.411 223.900, 137 225 M 255 225 C 254.411 226.100, 254.155 227, 254.430 227 C 254.705 227, 255.411 226.100, 256 225 C 256.589 223.900, 256.845 223, 256.570 223 C 256.295 223, 255.589 223.900, 255 225 M 389.158 228 C 389.158 229.375, 389.385 229.938, 389.662 229.250 C 389.940 228.563, 389.940 227.438, 389.662 226.750 C 389.385 226.063, 389.158 226.625, 389.158 228 M 140.015 229.500 C 142.330 232.886, 152.332 243.037, 155.500 245.216 C 157.150 246.351, 156.156 245.173, 153.291 242.598 C 150.427 240.024, 145.960 235.573, 143.365 232.709 C 140.771 229.844, 139.263 228.400, 140.015 229.500 M 388.158 233 C 388.158 234.375, 388.385 234.938, 388.662 234.250 C 388.940 233.563, 388.940 232.438, 388.662 231.750 C 388.385 231.063, 388.158 231.625, 388.158 233 M 242.500 239.743 C 234.967 246.957, 234.683 248.136, 242.097 241.415 C 246.071 237.813, 251.570 231.982, 250.937 232.041 C 250.697 232.063, 246.900 235.529, 242.500 239.743 M 6.141 241 C 6.141 241.825, 6.527 243.400, 7 244.500 C 7.542 245.761, 7.859 245.945, 7.859 245 C 7.859 244.175, 7.473 242.600, 7 241.500 C 6.458 240.239, 6.141 240.055, 6.141 241 M 159 247.430 C 159 247.705, 159.900 248.411, 161 249 C 162.100 249.589, 163 249.845, 163 249.570 C 163 249.295, 162.100 248.589, 161 248 C 159.900 247.411, 159 247.155, 159 247.430 M 231.441 248.555 C 229.577 250.049, 229.589 250.067, 231.750 249.020 C 232.988 248.420, 234 247.720, 234 247.465 C 234 246.700, 233.481 246.921, 231.441 248.555 M 10.573 255 C 10.941 256.375, 11.659 258.175, 12.169 259 C 12.813 260.042, 12.892 259.737, 12.427 258 C 12.059 256.625, 11.341 254.825, 10.831 254 C 10.187 252.958, 10.108 253.263, 10.573 255 M 171 254 C 171.825 254.533, 172.950 254.969, 173.500 254.969 C 174.050 254.969, 173.825 254.533, 173 254 C 172.175 253.467, 171.050 253.031, 170.500 253.031 C 169.950 253.031, 170.175 253.467, 171 254 M 220 254 C 219.175 254.533, 218.950 254.969, 219.500 254.969 C 220.050 254.969, 221.175 254.533, 222 254 C 222.825 253.467, 223.050 253.031, 222.500 253.031 C 221.950 253.031, 220.825 253.467, 220 254 M 381.624 254.539 C 380.659 257.053, 380.943 257.702, 382.122 255.675 C 382.706 254.671, 382.973 253.639, 382.715 253.382 C 382.458 253.124, 381.966 253.645, 381.624 254.539 M 183.750 257.662 C 184.438 257.940, 185.563 257.940, 186.250 257.662 C 186.938 257.385, 186.375 257.158, 185 257.158 C 183.625 257.158, 183.063 257.385, 183.750 257.662 M 206.750 257.662 C 207.438 257.940, 208.563 257.940, 209.250 257.662 C 209.938 257.385, 209.375 257.158, 208 257.158 C 206.625 257.158, 206.063 257.385, 206.750 257.662 M 192.776 258.733 C 195.128 258.945, 198.728 258.942, 200.776 258.727 C 202.824 258.512, 200.900 258.339, 196.500 258.343 C 192.100 258.346, 190.424 258.522, 192.776 258.733 M 379.624 259.539 C 378.659 262.053, 378.943 262.702, 380.122 260.675 C 380.706 259.671, 380.973 258.639, 380.715 258.382 C 380.458 258.124, 379.966 258.645, 379.624 259.539 M 13.071 261.500 C 13.071 262.050, 13.714 263.625, 14.500 265 C 15.286 266.375, 15.929 267.050, 15.929 266.500 C 15.929 265.950, 15.286 264.375, 14.500 263 C 13.714 261.625, 13.071 260.950, 13.071 261.500 M 373.710 272.535 C 371.679 276.641, 370.232 280, 370.496 280 C 371.164 280, 378.212 265.878, 377.766 265.433 C 377.567 265.233, 375.742 268.430, 373.710 272.535 M 17 270.373 C 17 271.453, 20.972 279, 21.541 279 C 21.816 279, 21.076 277.087, 19.897 274.750 C 17.579 270.153, 17 269.278, 17 270.373 M 24 284 C 25.122 286.200, 26.266 288, 26.541 288 C 26.816 288, 26.122 286.200, 25 284 C 23.878 281.800, 22.734 280, 22.459 280 C 22.184 280, 22.878 281.800, 24 284 M 29.500 294 C 30.353 295.650, 31.276 297, 31.551 297 C 31.826 297, 31.353 295.650, 30.500 294 C 29.647 292.350, 28.724 291, 28.449 291 C 28.174 291, 28.647 292.350, 29.500 294 M 33.500 301 C 34.353 302.650, 35.276 304, 35.551 304 C 35.826 304, 35.353 302.650, 34.500 301 C 33.647 299.350, 32.724 298, 32.449 298 C 32.174 298, 32.647 299.350, 33.500 301 M 353.891 311.250 C 352.166 314.688, 349.643 319.525, 348.286 322 C 346.928 324.475, 346.530 325.632, 347.400 324.571 C 349.377 322.161, 358.287 305, 357.561 305 C 357.268 305, 355.617 307.813, 353.891 311.250 M 38.080 309 C 39.538 312.061, 40 312.628, 40 311.358 C 40 310.821, 39.300 309.509, 38.445 308.441 C 36.978 306.611, 36.958 306.643, 38.080 309 M 42.284 317.750 C 44.806 322.458, 53.264 336, 53.682 336 C 53.983 336, 53.579 334.988, 52.783 333.750 C 51.987 332.512, 49.409 328.238, 47.054 324.250 C 44.699 320.262, 42.572 317, 42.327 317 C 42.082 317, 42.063 317.337, 42.284 317.750 M 343.804 329.250 C 343.020 330.488, 341.367 333.300, 340.131 335.500 C 337.488 340.206, 340.374 336.542, 343.807 330.835 C 346.243 326.784, 346.241 325.405, 343.804 329.250 M 57 342 C 57.589 343.100, 58.295 344, 58.570 344 C 58.845 344, 58.589 343.100, 58 342 C 57.411 340.900, 56.705 340, 56.430 340 C 56.155 340, 56.411 340.900, 57 342 M 335.615 342.500 C 334.727 343.875, 333.272 346.238, 332.381 347.750 L 330.763 350.500 332.774 348.066 C 335.151 345.191, 338.302 340, 337.672 340 C 337.429 340, 336.503 341.125, 335.615 342.500 M 64.693 354.077 C 65.687 355.769, 67.139 357.682, 67.920 358.327 C 68.701 358.972, 68.079 357.587, 66.537 355.250 C 63.300 350.342, 62.024 349.530, 64.693 354.077 M 322.276 362.750 C 315.850 372.211, 314.067 375.133, 315.717 373.500 C 316.273 372.950, 319.151 368.916, 322.114 364.535 C 328.810 354.632, 329.203 354, 328.659 354 C 328.417 354, 325.544 357.938, 322.276 362.750 M 70.511 362.377 C 71.457 363.820, 72.419 365, 72.650 365 C 73.374 365, 71.045 361.146, 69.891 360.433 C 69.287 360.059, 69.566 360.934, 70.511 362.377 M 76.556 371.750 C 82.602 381.057, 85.340 385, 85.757 385 C 86.017 385, 85.426 383.762, 84.444 382.250 C 78.398 372.943, 75.660 369, 75.243 369 C 74.983 369, 75.574 370.238, 76.556 371.750 M 305.819 387.750 C 299.626 397.094, 297.450 400.674, 298.680 399.500 C 300.570 397.695, 311.422 381, 310.706 381 C 310.479 381, 308.280 384.038, 305.819 387.750 M 89.554 391.750 C 94.898 399.988, 96.311 402, 96.748 402 C 97.013 402, 96.427 400.762, 95.446 399.250 C 90.102 391.012, 88.689 389, 88.252 389 C 87.987 389, 88.573 390.238, 89.554 391.750 M 296.381 402.250 C 295.976 402.938, 295.002 404.625, 294.217 406 C 292.846 408.400, 292.856 408.420, 294.468 406.500 C 296.499 404.080, 298.250 401, 297.594 401 C 297.332 401, 296.786 401.563, 296.381 402.250 M 98.524 405.566 C 99.453 407.252, 101.103 409.727, 102.190 411.066 L 104.167 413.500 102.476 410.434 C 101.547 408.748, 99.897 406.273, 98.810 404.934 L 96.833 402.500 98.524 405.566 M 291.381 410.250 C 290.976 410.938, 290.002 412.625, 289.217 414 C 287.846 416.400, 287.856 416.420, 289.468 414.500 C 291.499 412.080, 293.250 409, 292.594 409 C 292.332 409, 291.786 409.563, 291.381 410.250 M 104.872 415.500 C 105.412 416.600, 106.586 418.400, 107.482 419.500 L 109.110 421.500 108.128 419.500 C 107.588 418.400, 106.414 416.600, 105.518 415.500 L 103.890 413.500 104.872 415.500 M 286 419 C 285.411 420.100, 285.155 421, 285.430 421 C 285.705 421, 286.411 420.100, 287 419 C 287.589 417.900, 287.845 417, 287.570 417 C 287.295 417, 286.589 417.900, 286 419 M 110 424 C 110.589 425.100, 111.295 426, 111.570 426 C 111.845 426, 111.589 425.100, 111 424 C 110.411 422.900, 109.705 422, 109.430 422 C 109.155 422, 109.411 422.900, 110 424 M 283.381 423.250 C 282.976 423.938, 282.002 425.625, 281.217 427 C 279.846 429.400, 279.856 429.420, 281.468 427.500 C 283.499 425.080, 285.250 422, 284.594 422 C 284.332 422, 283.786 422.563, 283.381 423.250 M 113 429 C 113.589 430.100, 114.295 431, 114.570 431 C 114.845 431, 114.589 430.100, 114 429 C 113.411 427.900, 112.705 427, 112.430 427 C 112.155 427, 112.411 427.900, 113 429 M 278 432 C 277.411 433.100, 277.155 434, 277.430 434 C 277.705 434, 278.411 433.100, 279 432 C 279.589 430.900, 279.845 430, 279.570 430 C 279.295 430, 278.589 430.900, 278 432 M 116.500 435 C 117.353 436.650, 118.276 438, 118.551 438 C 118.826 438, 118.353 436.650, 117.500 435 C 116.647 433.350, 115.724 432, 115.449 432 C 115.174 432, 115.647 433.350, 116.500 435 M 120.500 442 C 121.353 443.650, 122.276 445, 122.551 445 C 122.826 445, 122.353 443.650, 121.500 442 C 120.647 440.350, 119.724 439, 119.449 439 C 119.174 439, 119.647 440.350, 120.500 442 M 273 441 C 272.411 442.100, 272.155 443, 272.430 443 C 272.705 443, 273.411 442.100, 274 441 C 274.589 439.900, 274.845 439, 274.570 439 C 274.295 439, 273.589 439.900, 273 441 M 269.500 447 C 268.647 448.650, 268.174 450, 268.449 450 C 268.724 450, 269.647 448.650, 270.500 447 C 271.353 445.350, 271.826 444, 271.551 444 C 271.276 444, 270.353 445.350, 269.500 447 M 124.500 449 C 125.353 450.650, 126.276 452, 126.551 452 C 126.826 452, 126.353 450.650, 125.500 449 C 124.647 447.350, 123.724 446, 123.449 446 C 123.174 446, 123.647 447.350, 124.500 449 M 265.500 454 C 264.647 455.650, 264.174 457, 264.449 457 C 264.724 457, 265.647 455.650, 266.500 454 C 267.353 452.350, 267.826 451, 267.551 451 C 267.276 451, 266.353 452.350, 265.500 454 M 129 457 C 130.122 459.200, 131.266 461, 131.541 461 C 131.816 461, 131.122 459.200, 130 457 C 128.878 454.800, 127.734 453, 127.459 453 C 127.184 453, 127.878 454.800, 129 457 M 260.500 463 C 259.106 465.750, 258.191 468, 258.466 468 C 258.741 468, 260.106 465.750, 261.500 463 C 262.894 460.250, 263.809 458, 263.534 458 C 263.259 458, 261.894 460.250, 260.500 463 M 135.500 469 C 137.439 472.850, 139.250 476, 139.525 476 C 139.800 476, 138.439 472.850, 136.500 469 C 134.561 465.150, 132.750 462, 132.475 462 C 132.200 462, 133.561 465.150, 135.500 469 M 248.447 486.106 C 244.835 493.315, 242.037 499.370, 242.229 499.562 C 242.421 499.754, 245.596 493.857, 249.284 486.456 C 252.973 479.055, 255.771 473, 255.502 473 C 255.234 473, 252.059 478.898, 248.447 486.106 M 149.084 495.500 C 149.084 496.050, 149.946 498.075, 151 500 C 152.054 501.925, 152.916 503.050, 152.916 502.500 C 152.916 501.950, 152.054 499.925, 151 498 C 149.946 496.075, 149.084 494.950, 149.084 495.500 M 237.162 509.543 C 235.487 513.220, 235.807 514.005, 237.618 510.662 C 238.464 509.100, 238.969 507.636, 238.741 507.407 C 238.512 507.179, 237.802 508.140, 237.162 509.543 M 155.090 508.500 C 155.090 509.050, 156.175 511.525, 157.500 514 C 158.825 516.475, 159.910 518.050, 159.910 517.500 C 159.910 516.950, 158.825 514.475, 157.500 512 C 156.175 509.525, 155.090 507.950, 155.090 508.500 M 231.624 521.539 C 230.659 524.053, 230.943 524.702, 232.122 522.675 C 232.706 521.671, 232.973 520.639, 232.715 520.382 C 232.458 520.124, 231.966 520.645, 231.624 521.539 M 161.031 521.500 C 161.031 522.050, 161.467 523.175, 162 524 C 162.533 524.825, 162.969 525.050, 162.969 524.500 C 162.969 523.950, 162.533 522.825, 162 522 C 161.467 521.175, 161.031 520.950, 161.031 521.500 M 224.624 538.539 C 223.659 541.053, 223.943 541.702, 225.122 539.675 C 225.706 538.671, 225.973 537.639, 225.715 537.382 C 225.458 537.124, 224.966 537.645, 224.624 538.539 M 169.031 541.500 C 169.031 542.050, 169.467 543.175, 170 544 C 170.533 544.825, 170.969 545.050, 170.969 544.500 C 170.969 543.950, 170.533 542.825, 170 542 C 169.467 541.175, 169.031 540.950, 169.031 541.500 M 221.111 548.111 C 220.495 549.878, 220.166 551.499, 220.380 551.713 C 220.594 551.927, 221.273 550.656, 221.889 548.889 C 222.505 547.122, 222.834 545.501, 222.620 545.287 C 222.406 545.073, 221.727 546.344, 221.111 548.111 M 171.573 548 C 171.941 549.375, 172.659 551.175, 173.169 552 C 173.813 553.042, 173.892 552.737, 173.427 551 C 173.059 549.625, 172.341 547.825, 171.831 547 C 171.187 545.958, 171.108 546.263, 171.573 548 M 217.111 559.111 C 216.495 560.878, 216.166 562.499, 216.380 562.713 C 216.594 562.927, 217.273 561.656, 217.889 559.889 C 218.505 558.122, 218.834 556.501, 218.620 556.287 C 218.406 556.073, 217.727 557.344, 217.111 559.111 M 176.086 560.500 C 176.190 562.394, 177.856 565.584, 177.914 564 C 177.945 563.175, 177.533 561.825, 177 561 C 176.467 560.175, 176.055 559.950, 176.086 560.500 M 212.571 572.571 C 212.204 574.037, 212.096 575.429, 212.331 575.665 C 212.567 575.900, 213.061 574.894, 213.429 573.429 C 213.796 571.963, 213.904 570.571, 213.669 570.335 C 213.433 570.100, 212.939 571.106, 212.571 572.571 M 180.086 572.500 C 180.190 574.394, 181.856 577.584, 181.914 576 C 181.945 575.175, 181.533 573.825, 181 573 C 180.467 572.175, 180.055 571.950, 180.086 572.500 M 208.571 585.571 C 208.204 587.037, 208.096 588.429, 208.331 588.665 C 208.567 588.900, 209.061 587.894, 209.429 586.429 C 209.796 584.963, 209.904 583.571, 209.669 583.335 C 209.433 583.100, 208.939 584.106, 208.571 585.571 M 206.571 592.571 C 206.204 594.037, 206.096 595.429, 206.331 595.665 C 206.567 595.900, 207.061 594.894, 207.429 593.429 C 207.796 591.963, 207.904 590.571, 207.669 590.335 C 207.433 590.100, 206.939 591.106, 206.571 592.571 M 204.571 599.571 C 204.204 601.037, 204.096 602.429, 204.331 602.665 C 204.567 602.900, 205.061 601.894, 205.429 600.429 C 205.796 598.963, 205.904 597.571, 205.669 597.335 C 205.433 597.100, 204.939 598.106, 204.571 599.571 M 194.158 623 C 194.158 624.375, 194.385 624.938, 194.662 624.250 C 194.940 623.563, 194.940 622.438, 194.662 621.750 C 194.385 621.063, 194.158 621.625, 194.158 623 M 196.015 633.750 C 196.027 635.893, 196.245 636.169, 197 635 C 198.264 633.043, 198.264 631, 197 631 C 196.450 631, 196.007 632.237, 196.015 633.750" stroke="none" fill="#58a157" fill-rule="evenodd"/><path d="M 185 0.672 C 164.331 2.152, 141.518 6.879, 125.821 12.934 C 105.175 20.898, 80.483 35.688, 64.627 49.588 C 35.012 75.549, 10.900 117.926, 4.028 156.087 C -2.061 189.901, -0.258 220.265, 9.584 249.682 C 14.130 263.271, 18.551 272.705, 30.115 293.500 C 35.315 302.850, 40.068 311.652, 40.677 313.060 C 42.626 317.567, 58.974 343.943, 71.011 362 C 97.310 401.453, 114.395 429.042, 130.831 458.595 C 140.219 475.475, 158.983 514.628, 166.010 532 C 177.050 559.293, 189.200 597.406, 194.212 620.464 C 195.470 626.255, 196.725 630.995, 197 630.996 C 197.275 630.997, 198.577 625.936, 199.893 619.749 C 204.973 595.863, 215.477 562.139, 225.948 536.098 C 246.348 485.365, 272.182 438.637, 319.194 367.436 C 329.339 352.071, 340.507 334.775, 344.012 329 C 354.752 311.302, 380.352 259.592, 383.865 248.500 C 387.887 235.799, 390.806 221.073, 391.645 209.250 C 392.006 204.162, 392.684 200, 393.151 200 C 393.618 200, 394 196.823, 394 192.941 C 394 188.490, 393.631 186.110, 393 186.500 C 392.375 186.886, 392 184.842, 392 181.052 C 392 173.805, 389.670 157.576, 387.039 146.500 C 379.055 112.887, 355.281 73.417, 329.077 50.270 C 311.194 34.474, 281.994 17.871, 259.347 10.621 C 244.738 5.944, 226.578 2.376, 210.696 1.060 C 198.332 0.036, 194.647 -0.019, 185 0.672 M 184 121.448 C 168.557 124.765, 159.046 129.921, 147.970 140.982 C 141.278 147.666, 138.523 151.331, 135.181 158 C 124.602 179.109, 124.438 198.984, 134.670 220 C 138.533 227.935, 140.712 230.917, 147.897 238.103 C 155.089 245.294, 158.058 247.463, 166 251.325 C 186.643 261.362, 206.295 261.431, 226.500 251.537 C 241.465 244.209, 251.918 233.619, 259.111 218.500 C 271.719 191.997, 266.318 162.263, 245.028 140.970 C 235.860 131.801, 225.222 125.451, 214 122.450 C 205.864 120.274, 191.671 119.800, 184 121.448 M 0.336 194 C 0.336 198.125, 0.513 199.813, 0.728 197.750 C 0.944 195.688, 0.944 192.313, 0.728 190.250 C 0.513 188.188, 0.336 189.875, 0.336 194" stroke="none" fill="#047c04" fill-rule="evenodd"/></svg>