<?xml version="1.0" encoding="UTF-8"?>
<!DOCTYPE svg PUBLIC "-//W3C//DTD SVG 1.1//EN" "http://www.w3.org/Graphics/SVG/1.1/DTD/svg11.dtd">
<svg xmlns="http://www.w3.org/2000/svg" version="1.1" width="256px" height="256px" style="shape-rendering:geometricPrecision; text-rendering:geometricPrecision; image-rendering:optimizeQuality; fill-rule:evenodd; clip-rule:evenodd" xmlns:xlink="http://www.w3.org/1999/xlink">
<g><path style="opacity:0.907" fill="#fefefe" d="M 114.5,15.5 C 173.839,12.7494 214.339,38.7494 236,93.5C 249.45,149.85 232.283,194.017 184.5,226C 139.903,249.532 97.2361,246.032 56.5,215.5C 16.4158,179.316 5.41575,135.482 23.5,84C 41.9589,45.1316 72.2922,22.2983 114.5,15.5 Z M 114.5,40.5 C 161.736,36.9575 194.236,56.9575 212,100.5C 223.798,153.013 205.298,190.18 156.5,212C 107.143,223.889 70.6427,207.723 47,163.5C 32.4812,123.417 40.6478,88.9169 71.5,60C 84.1364,49.5204 98.4697,43.0204 114.5,40.5 Z"/></g>
<g><path style="opacity:0.867" fill="#fefefe" d="M 126.5,57.5 C 137.583,59.3434 143.583,65.3434 144.5,75.5C 142.762,88.2174 135.429,94.0507 122.5,93C 111.244,87.9798 107.41,79.4798 111,67.5C 115.218,62.4873 120.385,59.154 126.5,57.5 Z"/></g>
<g><path style="opacity:0.891" fill="#fefefe" d="M 107.5,104.5 C 116.506,104.334 125.506,104.5 134.5,105C 139.536,106.627 142.369,110.127 143,115.5C 143.5,133.164 143.667,150.83 143.5,168.5C 149.362,168.152 155.028,168.985 160.5,171C 164.489,175.297 165.322,180.13 163,185.5C 161.048,187.894 158.548,189.394 155.5,190C 139.167,190.667 122.833,190.667 106.5,190C 100.679,188.712 97.679,185.046 97.5,179C 98.5988,172.903 102.265,169.57 108.5,169C 112.152,168.501 115.818,168.335 119.5,168.5C 119.5,154.167 119.5,139.833 119.5,125.5C 114.821,125.666 110.155,125.499 105.5,125C 99.9388,120.986 98.4388,115.819 101,109.5C 102.965,107.45 105.132,105.783 107.5,104.5 Z"/></g>
</svg>
