<?xml version="1.0" encoding="UTF-8"?>
<!DOCTYPE svg PUBLIC "-//W3C//DTD SVG 1.1//EN" "http://www.w3.org/Graphics/SVG/1.1/DTD/svg11.dtd">
<svg xmlns="http://www.w3.org/2000/svg" version="1.1" width="512px" height="512px" style="shape-rendering:geometricPrecision; text-rendering:geometricPrecision; image-rendering:optimizeQuality; fill-rule:evenodd; clip-rule:evenodd" xmlns:xlink="http://www.w3.org/1999/xlink">
<g><path style="opacity:0.99" fill="#0079fe" d="M 239.5,-0.5 C 250.167,-0.5 260.833,-0.5 271.5,-0.5C 333.962,10.4591 372.796,46.7924 388,108.5C 391.592,125.581 391.259,142.581 387,159.5C 375.932,195.974 361.265,230.974 343,264.5C 319.258,308.338 293.258,350.671 265,391.5C 262.353,395.314 259.187,398.647 255.5,401.5C 250.639,397.439 246.473,392.773 243,387.5C 199.397,325.319 162.73,258.986 133,188.5C 109.484,128.748 120.651,76.581 166.5,32C 187.704,14.0632 212.037,3.22986 239.5,-0.5 Z M 253.5,70.5 C 288.974,72.4755 310.474,90.8089 318,125.5C 318.804,168.027 298.137,192.027 256,197.5C 217.511,193.677 196.344,172.511 192.5,134C 196.091,96.5779 216.425,75.4112 253.5,70.5 Z"/></g>
<g><path style="opacity:0.98" fill="#0079fe" d="M 287.5,511.5 C 266.167,511.5 244.833,511.5 223.5,511.5C 188.096,509.095 153.43,502.262 119.5,491C 99.2989,484.327 81.7989,473.493 67,458.5C 53.8843,438.534 56.0509,420.367 73.5,404C 98.7255,384.809 127.059,372.809 158.5,368C 142.538,372.725 128.705,380.891 117,392.5C 110.141,401.944 109.808,411.611 116,421.5C 124.852,431.015 135.352,438.182 147.5,443C 182.367,455.644 218.367,461.478 255.5,460.5C 292.633,461.478 328.633,455.644 363.5,443C 375.648,438.182 386.148,431.015 395,421.5C 401.24,411.582 400.907,401.915 394,392.5C 386.978,385.072 378.811,379.238 369.5,375C 363.833,372.667 358.167,370.333 352.5,368C 380.997,372.832 407.33,383.165 431.5,399C 441.024,406.186 447.857,415.353 452,426.5C 454.278,438.991 451.278,449.991 443,459.5C 431.141,471.522 417.308,480.688 401.5,487C 364.637,501.004 326.637,509.171 287.5,511.5 Z"/></g>
</svg>
