<?xml version="1.0" encoding="UTF-8"?>
<!DOCTYPE svg PUBLIC "-//W3C//DTD SVG 1.1//EN" "http://www.w3.org/Graphics/SVG/1.1/DTD/svg11.dtd">
<svg xmlns="http://www.w3.org/2000/svg" version="1.1" width="1016px" height="952px" style="shape-rendering:geometricPrecision; text-rendering:geometricPrecision; image-rendering:optimizeQuality; fill-rule:evenodd; clip-rule:evenodd" xmlns:xlink="http://www.w3.org/1999/xlink">
<g><path style="opacity:0.502" fill="#8f8fa3" d="M 1.5,-0.5 C 102.833,-0.5 204.167,-0.5 305.5,-0.5C 305.5,0.166667 305.5,0.833333 305.5,1.5C 204.402,0.168227 103.402,0.168227 2.5,1.5C 1.66175,1.15829 1.32842,0.491622 1.5,-0.5 Z"/></g>
<g><path style="opacity:0.502" fill="#8e8da1" d="M 878.5,0.5 C 878.5,0.166667 878.5,-0.166667 878.5,-0.5C 908.5,-0.5 938.5,-0.5 968.5,-0.5C 968.672,0.491622 968.338,1.15829 967.5,1.5C 938.005,0.50192 908.338,0.168587 878.5,0.5 Z"/></g>
<g><path style="opacity:0.999" fill="#fbfbfb" d="M 305.5,1.5 C 390.803,114.983 475.97,228.65 561,342.5C 667.067,228.604 772.9,114.604 878.5,0.5C 908.338,0.168587 938.005,0.50192 967.5,1.5C 846.073,133.764 724.073,265.597 601.5,397C 739.793,580.78 877.46,764.946 1014.5,949.5C 914.001,950.499 813.335,950.833 712.5,950.5C 619.53,826.684 526.697,702.684 434,578.5C 318.995,703.004 203.829,827.337 88.5,951.5C 58.8333,951.5 29.1667,951.5 -0.5,951.5C -0.5,950.833 -0.5,950.167 -0.5,949.5C 131.015,808.152 262.015,666.318 392.5,524C 262.618,349.732 132.618,175.565 2.5,1.5C 103.402,0.168227 204.402,0.168227 305.5,1.5 Z M 134.5,67.5 C 179.997,66.5012 225.664,66.1679 271.5,66.5C 474.935,339.05 678.602,611.384 882.5,883.5C 837.003,884.499 791.336,884.832 745.5,884.5C 542.187,611.86 338.52,339.527 134.5,67.5 Z"/></g>
<g><path style="opacity:0.251" fill="#4c304c" d="M 271.5,66.5 C 225.664,66.1679 179.997,66.5012 134.5,67.5C 133.957,67.44 133.624,67.1067 133.5,66.5C 179.665,65.1691 225.665,65.1691 271.5,66.5 Z"/></g>
<g><path style="opacity:0.502" fill="#9090a4" d="M 882.5,883.5 C 883.043,883.56 883.376,883.893 883.5,884.5C 837.335,885.831 791.335,885.831 745.5,884.5C 791.336,884.832 837.003,884.499 882.5,883.5 Z"/></g>
<g><path style="opacity:0.251" fill="#4b2f4b" d="M 1014.5,949.5 C 1014.83,949.5 1015.17,949.5 1015.5,949.5C 1015.5,950.167 1015.5,950.833 1015.5,951.5C 914.5,951.5 813.5,951.5 712.5,951.5C 712.5,951.167 712.5,950.833 712.5,950.5C 813.335,950.833 914.001,950.499 1014.5,949.5 Z"/></g>
</svg>
